<?xml version="1.0" encoding="UTF-8"?>
<svg
   xmlns="http://www.w3.org/2000/svg"
   width="20px"
   height="20px"
   viewBox="0 0 20 20">
<path
   d="M19.764,10c0-5.393-4.371-9.764-9.764-9.764S0.236,4.607,0.236,10S4.607,19.764,10,19.764  S19.764,15.393,19.764,10z"
   style="fill:#d54b59" />
<path
   fill="#2E3436"
   d="  M6.141,15.971c-0.297-0.011-0.529-0.26-0.518-0.557c0.005-0.147,0.071-0.286,0.182-0.383c2.335-2.336,6.131-2.336,8.465,0  c0.236,0.18,0.28,0.518,0.1,0.754c-0.182,0.234-0.519,0.279-0.754,0.099c-0.031-0.024-0.06-0.051-0.084-0.081  c-1.924-1.924-5.03-1.924-6.954,0C6.465,15.923,6.304,15.984,6.141,15.971z"
   style="opacity:0.9" />
<path
   fill="#2E3436"
   d="M8.538,7.322  c0-0.932-0.755-1.687-1.687-1.687S5.164,6.391,5.164,7.322s0.755,1.687,1.687,1.687S8.538,8.254,8.538,7.322z"
   style="opacity:0.9" />
<path
   fill="#2E3436"
   d="M14.836,7.322  c0-0.932-0.756-1.687-1.688-1.687s-1.687,0.755-1.687,1.687s0.755,1.687,1.687,1.687S14.836,8.254,14.836,7.322z"
   style="opacity:0.9" />
</svg>
