<?xml version="1.0" encoding="UTF-8"?>
<svg
   xmlns="http://www.w3.org/2000/svg"
   width="20px"
   height="20px"
   viewBox="0 0 20 20">
<circle cx="10" cy="10" r="9.764" fill="#d54b59" />
<path
   fill="#2E3436"
   d="  M6.141,15.971c-0.297-0.011-0.529-0.26-0.518-0.557c0.005-0.147,0.071-0.286,0.182-0.383c2.335-2.336,6.131-2.336,8.465,0  c0.236,0.18,0.28,0.518,0.1,0.754c-0.182,0.234-0.519,0.279-0.754,0.099c-0.031-0.024-0.06-0.051-0.084-0.081  c-1.924-1.924-5.03-1.924-6.954,0C6.465,15.923,6.304,15.984,6.141,15.971z"
   style="opacity:0.9" />
<circle cx="6.851" cy="7.322" r="1.687" opacity="0.9" fill="#2e3436" />
<circle cx="13.149" cy="7.322" r="1.687" opacity="0.9" fill="#2e3436" />
</svg>
