<?xml version="1.0" encoding="UTF-8"?>
<svg
   xmlns="http://www.w3.org/2000/svg"
   width="20"
   height="20"
   viewBox="0 0 20 20">
<path
   d="M 19.764,10 C 19.764,4.607 15.393,0.236 10,0.236 4.607,0.236 0.236,4.607 0.236,10 c 0,5.393 4.371,9.764 9.764,9.764 5.393,0 9.764,-4.371 9.764,-9.764 z"
   style="fill:#00c066" />
<path
   d="m 8.538,7.322 c 0,-0.932 -0.755,-1.687 -1.687,-1.687 -0.932,0 -1.687,0.756 -1.687,1.687 0,0.931 0.755,1.687 1.687,1.687 0.932,0 1.687,-0.755 1.687,-1.687 z"
   style="opacity:0.9;fill:#2e3436" />
<path
   d="m 14.836,7.322 c 0,-0.932 -0.756,-1.687 -1.688,-1.687 -0.932,0 -1.687,0.755 -1.687,1.687 0,0.932 0.755,1.687 1.687,1.687 0.932,0 1.688,-0.755 1.688,-1.687 z"
   style="opacity:0.9;fill:#2e3436" />
<path
   d="m 15.147105,15.097697 a 3.8394611,3.8394611 0 0 1 -6.650142,0"
   transform="translate(-1.8220339,-1.184406)"
   style="opacity:0.9;fill:none;stroke:#2e3436;stroke-linecap:round" /></svg>
