<?xml version="1.0" encoding="UTF-8"?>
<svg
   xmlns="http://www.w3.org/2000/svg"
   width="20"
   height="20">
  <g
     transform="translate(0,-1032.3622)">
    <g
       transform="translate(67.602315,-366.25172)">
      <g
         transform="matrix(1.5248997,0,0,1.5248997,-3202.5704,1020.3683)">
        <path
           d="m 2057.6454,250.4274 0,6.82653 4.7447,0 2.0347,2.00309 0.5184,-2.00309 2.231,0 0,-6.82653 z"
           id="path11210-3-1-1-8-9"
           style="fill:#99aae5" />
      </g>
      <g
         transform="matrix(1.7952778,0,0,1.7952778,-75.212917,-462.87027)">
        <path
           d="m 7.3519189,1041.9904 c -0.1987513,0 -0.3587561,0.16 -0.3587561,0.3587 l 0,1.2535 c 0,0.1988 0.1600048,0.3588 0.3587561,0.3588 l 4.9149661,0 c 0.198751,0 0.358757,-0.16 0.358757,-0.3588 l 0,-1.2535 c 0,-0.1987 -0.160006,-0.3587 -0.358757,-0.3587 l -0.16144,0 c -0.552798,0.6554 -1.371521,1.0763 -2.2960434,1.0763 -0.9245208,0 -1.7432439,-0.4209 -2.2960424,-1.0763 z"
           style="fill:#3152c0" />
      </g>
    </g>
  </g>
  <circle cx="10" cy="6.74" r="3.84" fill="#3152c0" />
</svg>
