<?xml version="1.0" encoding="UTF-8"?>
<svg
   xmlns="http://www.w3.org/2000/svg"
   width="20"
   height="20">
  <g
     transform="translate(0,-1032.3622)">
    <path
       style="fill:#3152c0"
       d="m 9.4264132,1033.4053 0.132313,1.8976 0.3972211,0 0.08812,0 0.750247,0.044 0.573734,0.089 0.08811,0 0.617933,0.1765 0.08811,0 0.0442,0.044 0.66185,-1.8092 -0.132314,-0.044 -0.08825,-0.044 -0.794304,-0.1765 -0.08825,-0.044 -0.794302,-0.1324 -0.08824,0 -0.838503,-0.044 -0.08812,0 z m -3.662692,1.0149 -0.08825,0.044 -0.661848,0.3971 -0.08839,0.089 -0.617649,0.4412 -0.0442,0.044 -0.573734,0.5296 -0.08812,0.087 -0.26491,0.3089 1.412095,1.2797 0.22071,-0.2647 0.0442,0 0,-0.044 0.441139,-0.3973 0.0884,-0.044 0.485336,-0.353 0.0442,-0.044 0.529536,-0.3089 0.08812,-0.044 0.220711,-0.1324 -0.838361,-1.721 z m 8.8255908,2.5594 0.397081,0.3531 0.0442,0.044 0.397222,0.4412 0.04405,0.088 0.353025,0.4854 0.04406,0.044 0.308966,0.5294 0.04406,0.087 0.04419,0.089 1.765116,-0.8384 -0.08824,-0.1765 -0.04406,-0.089 -0.397223,-0.6619 -0.08824,-0.089 -0.441279,-0.6176 -0.04419,-0.044 -0.529536,-0.5739 -0.08812,-0.087 -0.441421,-0.3972 z m -13.1501298,2.6477 -0.0442,0.089 -0.176513,0.7944 -0.04406,0.088 -0.132455,0.7943 0,0.089 -0.04406,0.8384 0,0.089 0.04406,0.353 1.897573,-0.089 0,-0.2649 0,-0.089 0.04406,-0.7503 0.08839,-0.5737 0,-0.089 0.176512,-0.6181 0,-0.089 0.08812,-0.2208 -1.809175,-0.6618 z m 15.5772388,2.1181 0.04406,0.5738 0,0.043 0,0.043 -0.04406,0.7503 -0.0884,0.5737 0,0.089 -0.176511,0.618 -0.22057,0.6175 1.809176,0.6622 0.220711,-0.6179 0.04419,-0.089 0.176514,-0.7943 0.04406,-0.089 0.132455,-0.7943 0,-0.088 0.04406,-0.8386 -0.970816,-0.043 0.970816,-0.043 -0.04406,-0.7062 z m -15.1800168,4.3687 0.220569,0.4854 0.04406,0.089 0.397223,0.6619 0.08825,0.089 0.44128,0.6176 0.0442,0.043 0.529536,0.5738 0.08812,0.089 0.176512,0.1765 1.279781,-1.4561 -0.132314,-0.089 -0.0442,-0.043 -0.397221,-0.4412 -0.04406,-0.089 -0.353024,-0.4852 -0.04406,-0.043 -0.308966,-0.5294 -0.04406,-0.089 -0.220711,-0.3972 z m 13.1499888,1.2797 -0.441138,0.3972 -0.08839,0.043 -0.485336,0.353 -0.0442,0.043 -0.529536,0.3089 -0.08812,0.043 -0.529538,0.2648 0.838362,1.7652 0.617791,-0.309 0.08825,-0.043 0.661848,-0.3971 0.0884,-0.089 0.617649,-0.4412 0.0442,-0.043 0.573735,-0.5295 0.08812,-0.088 0.0442,-0.043 -1.412095,-1.2797 z m -8.2076578,3.3538 0.485337,0.1764 0.08825,0.043 0.794303,0.1765 0.08825,0.043 0.794303,0.1326 0.08825,0 0.8385021,0.043 0.088121,0 0.176513,0 -0.08811,-1.9417 -0.0884,0 -0.08812,0 -0.7502461,-0.043 -0.573734,-0.089 -0.08812,0 -0.617932,-0.1763 -0.485338,-0.1767 z" />
  </g>
</svg>
