<?xml version="1.0" encoding="UTF-8"?>
<svg
   xmlns="http://www.w3.org/2000/svg"
   width="20"
   height="20">
  <g
     transform="translate(0,-1032.3622)">
    <path
       d="m 10,1033.3622 c -4.9543017,0 -9,4.0457 -9,9 0,4.9543 4.0456983,9 9,9 4.954302,0 9,-4.0457 9,-9 0,-4.9543 -4.045698,-9 -9,-9 z m 0,2.7458 c 1.172845,0 2.268327,0.3221 3.20339,0.8771 l -8.5805086,8.5805 c -0.5549636,-0.9351 -0.8771187,-2.0305 -0.8771187,-3.2034 0,-3.4704 2.7838556,-6.2542 6.2542373,-6.2542 z m 5.377119,3.0508 c 0.554963,0.9351 0.877118,2.0305 0.877118,3.2034 0,3.4704 -2.783855,6.2542 -6.254237,6.2542 -1.172845,0 -2.2683269,-0.3221 -3.2033898,-0.8771 l 8.5805088,-8.5805 z"
       style="fill:#3152c0" />
  </g>
</svg>
